<svg xmlns="http://www.w3.org/2000/svg" width="33" height="33" viewBox="0 0 33 33" fill="none"><path d="M26.0299 7.75709C24.2772 6.95285 22.3976 6.36032 20.4324 6.02095C20.3966 6.01441 20.3608 6.03077 20.3424 6.06351C20.1007 6.49344 19.8329 7.05433 19.6454 7.49518C17.5317 7.17874 15.4289 7.17874 13.3585 7.49518C13.171 7.04453 12.8935 6.49344 12.6507 6.06351C12.6322 6.03187 12.5965 6.0155 12.5607 6.02095C10.5966 6.35924 8.717 6.95176 6.96315 7.75709C6.94797 7.76363 6.93496 7.77456 6.92632 7.78873C3.36118 13.115 2.38454 18.3103 2.86364 23.4412C2.86581 23.4663 2.8799 23.4903 2.89941 23.5056C5.25159 25.233 7.53008 26.2817 9.76626 26.9768C9.80205 26.9877 9.83996 26.9746 9.86274 26.9451C10.3917 26.2228 10.8632 25.4611 11.2675 24.6601C11.2914 24.6132 11.2686 24.5575 11.2198 24.539C10.4719 24.2553 9.75975 23.9094 9.07469 23.5165C9.0205 23.4849 9.01617 23.4074 9.06601 23.3703C9.21018 23.2622 9.35438 23.1498 9.49203 23.0364C9.51694 23.0156 9.55164 23.0113 9.58092 23.0244C14.0815 25.0791 18.9539 25.0791 23.4013 23.0244C23.4306 23.0102 23.4653 23.0146 23.4913 23.0353C23.629 23.1488 23.7731 23.2622 23.9184 23.3703C23.9682 23.4074 23.965 23.4849 23.9108 23.5165C23.2257 23.917 22.5136 24.2553 21.7645 24.5379C21.7158 24.5565 21.6941 24.6132 21.718 24.6601C22.1309 25.46 22.6024 26.2216 23.1217 26.944C23.1433 26.9746 23.1823 26.9877 23.2181 26.9768C25.4652 26.2817 27.7436 25.233 30.0958 23.5056C30.1164 23.4903 30.1294 23.4674 30.1316 23.4423C30.705 17.5104 29.1712 12.3577 26.0657 7.78982C26.0581 7.77456 26.0451 7.76363 26.0299 7.75709ZM11.9396 20.317C10.5846 20.317 9.46817 19.0731 9.46817 17.5453C9.46817 16.0176 10.563 14.7737 11.9396 14.7737C13.327 14.7737 14.4327 16.0285 14.411 17.5453C14.411 19.0731 13.3162 20.317 11.9396 20.317ZM21.0773 20.317C19.7224 20.317 18.6059 19.0731 18.6059 17.5453C18.6059 16.0176 19.7007 14.7737 21.0773 14.7737C22.4648 14.7737 23.5704 16.0285 23.5488 17.5453C23.5488 19.0731 22.4648 20.317 21.0773 20.317Z" fill="white"></path></svg>