<svg xmlns="http://www.w3.org/2000/svg" width="30" height="30" viewBox="0 0 30 30" fill="none"><path d="M9.11149 6.13436C13.0298 5.79375 16.9703 5.79375 20.8886 6.13436L22.7763 6.29847C24.0331 6.40771 25.1094 7.1573 25.6671 8.22952C25.7384 8.36669 25.685 8.53277 25.5535 8.61415L17.721 13.4628C16.0412 14.5027 13.9231 14.5245 12.2222 13.5194L4.33738 8.86026C4.20999 8.78498 4.15152 8.63003 4.20893 8.49365C4.71912 7.2817 5.86616 6.41647 7.2237 6.29847L9.11149 6.13436Z" fill="white"></path><path d="M4.20251 10.9584C4.00756 10.8432 3.7588 10.9672 3.73608 11.1925C3.41891 14.3371 3.49567 17.5114 3.96637 20.6415C4.21451 22.2917 5.56127 23.5567 7.2237 23.7012L9.11149 23.8653C13.0298 24.2059 16.9703 24.2059 20.8886 23.8653L22.7764 23.7012C24.4388 23.5567 25.7855 22.2917 26.0337 20.6415C26.5181 17.4202 26.5853 14.152 26.2352 10.9177C26.2107 10.6908 25.9577 10.5691 25.7637 10.6892L18.708 15.0571C16.4352 16.464 13.5695 16.4935 11.2683 15.1337L4.20251 10.9584Z" fill="white"></path></svg>