<svg xmlns="http://www.w3.org/2000/svg" width="33" height="33" viewBox="0 0 33 33" fill="none"><path d="M28.875 5.94485V27.0551C28.875 27.5378 28.6833 28.0007 28.342 28.342C28.0007 28.6833 27.5378 28.875 27.0551 28.875H5.94485C5.4622 28.875 4.99931 28.6833 4.65802 28.342C4.31673 28.0007 4.125 27.5378 4.125 27.0551V5.94485C4.125 5.4622 4.31673 4.99931 4.65802 4.65802C4.99931 4.31673 5.4622 4.125 5.94485 4.125H27.0551C27.5378 4.125 28.0007 4.31673 28.342 4.65802C28.6833 4.99931 28.875 5.4622 28.875 5.94485ZM11.4044 13.5882H7.76471V25.2353H11.4044V13.5882ZM11.732 9.58456C11.7339 9.30924 11.6816 9.03625 11.578 8.78116C11.4744 8.52607 11.3216 8.29388 11.1283 8.09785C10.9349 7.90182 10.7049 7.74579 10.4513 7.63867C10.1976 7.53155 9.92539 7.47543 9.65007 7.47353H9.58456C9.02468 7.47353 8.48773 7.69594 8.09184 8.09184C7.69594 8.48773 7.47353 9.02468 7.47353 9.58456C7.47353 10.1444 7.69594 10.6814 8.09184 11.0773C8.48773 11.4732 9.02468 11.6956 9.58456 11.6956C9.85989 11.7024 10.1339 11.6548 10.3908 11.5557C10.6478 11.4565 10.8827 11.3077 11.0821 11.1178C11.2815 10.9278 11.4416 10.7004 11.5531 10.4486C11.6646 10.1967 11.7254 9.92541 11.732 9.65007V9.58456ZM25.2353 18.1597C25.2353 14.6583 23.0078 13.2971 20.7949 13.2971C20.0703 13.2608 19.3489 13.4151 18.7026 13.7446C18.0563 14.0742 17.5077 14.5674 17.1115 15.1751H17.0096V13.5882H13.5882V25.2353H17.2279V19.0405C17.1753 18.4061 17.3752 17.7765 17.7841 17.2885C18.193 16.8006 18.7779 16.4937 19.4118 16.4345H19.5501C20.7075 16.4345 21.5665 17.1624 21.5665 18.9968V25.2353H25.2062L25.2353 18.1597Z" fill="white"></path></svg>