<svg xmlns="http://www.w3.org/2000/svg" width="30" height="31" viewBox="0 0 30 31" fill="none"><path d="M6.2503 12.826C8.6458 18.0433 12.9083 22.1915 18.2077 24.4402L19.0572 24.8187C21.0007 25.6846 23.2854 25.0268 24.4709 23.2599L25.581 21.6052C25.9419 21.0673 25.832 20.3427 25.3278 19.936L21.563 16.8987C21.01 16.4526 20.1969 16.5565 19.7738 17.1273L18.6092 18.6989C15.6207 17.2247 13.1944 14.7984 11.7202 11.8099L13.2917 10.6453C13.8626 10.2222 13.9665 9.40909 13.5204 8.85611L10.483 5.09118C10.0763 4.58708 9.35196 4.47712 8.81401 4.83783L7.14796 5.95495C5.37002 7.14709 4.7158 9.45065 5.60171 11.3993L6.24932 12.8238L6.2503 12.826Z" fill="white"></path></svg>