<svg xmlns="http://www.w3.org/2000/svg" width="240" height="240" viewBox="0 0 240 240" fill="none"><circle cx="120" cy="120" r="118" fill="url(#paint0_linear_375_3075)" stroke="#151515" stroke-width="4"></circle><path d="M107.989 203.516L107.656 204.997C107.255 204.907 106.907 204.949 106.613 205.124C106.318 205.298 106.05 205.553 105.809 205.89C105.554 206.223 105.299 206.587 105.045 206.981L98.2785 217.524L96.776 217.186L94.8334 204.46C94.7958 204.226 94.7553 203.872 94.7119 203.396C94.6653 202.934 94.6647 202.536 94.71 202.2C94.4603 202.174 94.2282 202.137 94.0135 202.089C93.7813 202.052 93.5937 202.017 93.4506 201.985L93.8221 200.332L99.5961 201.63L99.2776 203.046C98.877 202.956 98.5874 202.974 98.4089 203.099C98.2129 203.236 98.0899 203.448 98.0399 203.738C97.9899 204.027 97.9962 204.367 98.0589 204.757L98.2228 206.034L102.9 206.995L103.47 206.063C103.583 205.893 103.754 205.638 103.98 205.299C104.189 204.97 104.379 204.697 104.548 204.479C104.312 204.456 104.037 204.409 103.722 204.339C103.39 204.279 103.152 204.233 103.009 204.201L103.395 202.484L107.989 203.516ZM102.001 208.484L98.4169 207.678L98.8012 210.583C98.8714 211.14 98.9202 211.693 98.9475 212.24C98.9716 212.801 98.9744 213.291 98.9559 213.707L98.9774 213.712C99.0893 213.482 99.2571 213.136 99.481 212.675C99.7048 212.215 100.014 211.675 100.408 211.057L102.001 208.484Z" fill="white"></path><path d="M94.1481 194.367L93.5846 195.681C93.2072 195.52 92.9058 195.478 92.6805 195.557C92.4416 195.63 92.2413 195.8 92.0795 196.065C91.91 196.312 91.7501 196.61 91.5998 196.961L87.9326 205.514C87.8285 205.756 87.7062 206.023 87.5656 206.314C87.4191 206.618 87.2689 206.913 87.1148 207.198C87.3362 207.277 87.5981 207.373 87.9005 207.487C88.197 207.614 88.4223 207.703 88.5764 207.753L87.9175 209.289C87.2839 209.018 86.7438 208.826 86.297 208.714C85.8367 208.597 85.4651 208.533 85.182 208.523C84.8854 208.508 84.6726 208.52 84.5436 208.561L83.5528 208.136C83.5836 207.99 83.6357 207.813 83.7089 207.605C83.7763 207.41 83.8293 207.249 83.8678 207.122C83.2226 207.324 82.6362 207.408 82.1085 207.373C81.5674 207.333 81.0879 207.223 80.67 207.044C79.8612 206.697 79.2431 206.184 78.8157 205.506C78.3748 204.823 78.1506 204.024 78.143 203.112C78.122 202.193 78.334 201.215 78.7791 200.177C79.2414 199.098 79.8665 198.217 80.6543 197.534C81.4363 196.864 82.3088 196.448 83.2717 196.286C84.2212 196.119 85.2014 196.252 86.2124 196.686C86.5763 196.842 86.8892 197.024 87.1511 197.232C87.4053 197.42 87.6402 197.617 87.8559 197.821L88.6882 195.88C88.7691 195.691 88.8885 195.431 89.0465 195.1C89.1968 194.75 89.3519 194.425 89.5118 194.127C89.2845 194.061 89.04 193.98 88.7781 193.884C88.5219 193.774 88.3265 193.69 88.1917 193.632L88.8506 192.096L94.1481 194.367ZM85.8857 198.341C85.2598 198.088 84.7033 198.065 84.216 198.271C83.7095 198.485 83.2645 198.853 82.8812 199.374C82.4979 199.896 82.1646 200.487 81.8814 201.148C81.6155 201.768 81.4382 202.386 81.3496 203.002C81.2609 203.619 81.306 204.165 81.485 204.64C81.6583 205.13 82.0107 205.48 82.5421 205.692C82.8849 205.823 83.2325 205.868 83.585 205.828C83.9316 205.801 84.2571 205.693 84.5614 205.505C84.7406 205.087 84.9198 204.669 85.0989 204.251C85.2723 203.847 85.4457 203.442 85.6191 203.038C85.7925 202.633 85.9688 202.222 86.148 201.804C86.3213 201.4 86.4976 200.989 86.6768 200.571C86.8502 200.167 87.0265 199.755 87.2057 199.338C87.0978 199.18 86.9265 199.002 86.6915 198.806C86.4566 198.609 86.188 198.454 85.8857 198.341Z" fill="white"></path><path d="M81.5322 188.708L80.7456 189.902C80.4027 189.676 80.1133 189.582 79.8776 189.62C79.6296 189.65 79.4025 189.782 79.1964 190.015C78.986 190.227 78.776 190.493 78.5662 190.811L73.4472 198.583C73.3019 198.803 73.1345 199.044 72.9447 199.306C72.7469 199.579 72.547 199.843 72.345 200.096C72.5491 200.213 72.7898 200.354 73.0674 200.519C73.3368 200.697 73.543 200.824 73.6858 200.9L72.766 202.297C72.1904 201.917 71.6925 201.633 71.2725 201.444C70.8402 201.247 70.4856 201.119 70.2086 201.06C69.9194 200.992 69.7078 200.967 69.5736 200.984L68.6734 200.391C68.7296 200.252 68.812 200.087 68.9208 199.895C69.0215 199.716 69.102 199.567 69.1624 199.449C68.4917 199.534 67.8997 199.513 67.3864 199.385C66.8609 199.25 66.4083 199.057 66.0286 198.807C65.2937 198.323 64.7757 197.71 64.4747 196.967C64.1613 196.216 64.0815 195.391 64.2352 194.491C64.3766 193.583 64.7579 192.657 65.3791 191.714C66.0246 190.734 66.7953 189.978 67.6913 189.444C68.5793 188.922 69.5115 188.667 70.4878 188.678C71.4519 188.681 72.3933 188.984 73.3119 189.59C73.6426 189.807 73.9185 190.042 74.1395 190.293C74.3564 190.523 74.553 190.758 74.7292 190.997L75.891 189.234C76.0039 189.062 76.1674 188.827 76.3813 188.529C76.5911 188.211 76.801 187.919 77.011 187.653C76.7989 187.548 76.5725 187.426 76.3317 187.285C76.099 187.131 75.9214 187.014 75.7989 186.934L76.7186 185.537L81.5322 188.708ZM72.6982 191.161C72.1267 190.802 71.583 190.681 71.067 190.798C70.5307 190.919 70.0279 191.202 69.5585 191.648C69.0891 192.094 68.6567 192.617 68.2614 193.218C67.8903 193.781 67.6067 194.358 67.4106 194.949C67.2146 195.54 67.1627 196.085 67.255 196.585C67.3392 197.097 67.6241 197.505 68.1099 197.807C68.4242 197.996 68.7583 198.102 69.1123 198.125C69.4583 198.16 69.7977 198.111 70.1305 197.979C70.3806 197.599 70.6307 197.219 70.8808 196.84C71.1229 196.472 71.3649 196.105 71.607 195.737C71.849 195.37 72.0951 194.996 72.3452 194.617C72.5872 194.249 72.8333 193.876 73.0834 193.496C73.3254 193.129 73.5715 192.755 73.8216 192.375C73.7433 192.201 73.6059 191.996 73.4094 191.761C73.2128 191.526 72.9757 191.326 72.6982 191.161Z" fill="white"></path><path d="M61.615 180.596C61.4965 180.766 61.3976 180.904 61.3184 181.011C61.2184 181.118 61.1088 181.247 60.9896 181.396C61.6944 181.371 62.3206 181.474 62.8684 181.703C63.4162 181.933 63.8993 182.243 64.3178 182.633C65.0046 183.272 65.3512 183.976 65.3577 184.744C65.3641 185.512 65.0824 186.201 64.5125 186.813C64.0327 187.328 63.494 187.648 62.8965 187.773C62.2883 187.888 61.6646 187.858 61.0254 187.684C60.3655 187.51 59.7176 187.237 59.0818 186.865C58.4253 186.494 57.8187 186.069 57.2622 185.591L56.4824 186.428C56.2224 186.707 56.0251 186.994 55.8902 187.289C55.7447 187.575 55.6978 187.862 55.7495 188.151C55.7905 188.429 55.9662 188.703 56.2767 188.972C56.4906 189.152 56.7291 189.294 56.9923 189.399C57.2554 189.503 57.5217 189.551 57.7912 189.542C57.7953 189.365 57.8417 189.208 57.9302 189.07C58.0087 188.942 58.0879 188.836 58.1679 188.75C58.3678 188.535 58.6636 188.39 59.0553 188.314C59.4369 188.248 59.8106 188.396 60.1762 188.757C60.4881 189.067 60.63 189.41 60.6017 189.784C60.5735 190.159 60.4244 190.491 60.1545 190.781C59.7546 191.21 59.2594 191.44 58.669 191.472C58.0579 191.504 57.4148 191.366 56.7397 191.058C56.0546 190.76 55.4009 190.321 54.7785 189.742C53.8341 188.862 53.3343 187.935 53.2791 186.962C53.2031 185.989 53.665 184.966 54.6648 183.893C55.0047 183.528 55.2946 183.217 55.5345 182.959C55.7745 182.702 56.0198 182.449 56.2704 182.201C56.5104 181.944 56.8003 181.633 57.1402 181.268C57.2802 181.118 57.4855 180.908 57.7562 180.639C58.0168 180.381 58.2729 180.138 58.5243 179.911C58.3218 179.763 58.1187 179.594 57.9148 179.404C57.7009 179.224 57.5403 179.085 57.433 178.985L58.5727 177.761L61.615 180.596ZM58.343 184.463C58.6735 184.711 59.0078 184.922 59.3461 185.097C59.6844 185.272 60.0154 185.39 60.3393 185.451C60.6524 185.502 60.953 185.491 61.241 185.419C61.5183 185.336 61.7619 185.182 61.9718 184.957C62.241 184.647 62.3444 184.342 62.2819 184.043C62.2195 183.745 62.0702 183.485 61.8341 183.265C61.5873 183.035 61.3065 182.874 60.9919 182.781C60.6773 182.689 60.3542 182.648 60.0225 182.66C59.9226 182.767 59.8276 182.869 59.7376 182.966C59.6377 183.073 59.5377 183.181 59.4377 183.288C59.2577 183.481 59.0778 183.674 58.8978 183.867C58.7079 184.071 58.5229 184.27 58.343 184.463Z" fill="white"></path><path d="M55.5596 176.403C55.3047 176.081 55.0594 175.901 54.8236 175.864C54.5879 175.826 54.3414 175.881 54.0841 176.028C53.8062 176.173 53.5178 176.364 53.2188 176.601L50.3211 178.895C50.1141 179.059 49.8795 179.235 49.6175 179.424C49.3439 179.622 49.0715 179.81 48.8003 179.987C48.9575 180.162 49.1419 180.371 49.3537 180.615C49.5449 180.857 49.6963 181.036 49.808 181.153L48.4971 182.191L47.9509 181.501C47.5958 181.053 47.2151 180.69 46.8088 180.413C46.3934 180.125 46.0826 179.969 45.8766 179.945L45.2074 179.1C45.3042 178.985 45.5091 178.795 45.8219 178.529C46.1233 178.272 46.3947 178.047 46.6362 177.856C46.0109 177.846 45.474 177.794 45.0256 177.7C44.5771 177.606 44.1964 177.468 43.8835 177.286C43.55 177.101 43.274 176.87 43.0555 176.594C42.7369 176.192 42.5742 175.75 42.5675 175.269C42.5493 174.797 42.7931 174.361 43.2991 173.96C43.4716 173.824 43.6874 173.718 43.9466 173.644C44.1943 173.579 44.4497 173.582 44.7128 173.655C44.9758 173.727 45.2257 173.913 45.4624 174.212C45.6445 174.442 45.7621 174.732 45.8153 175.083C45.8685 175.433 45.7133 175.781 45.3496 176.125C45.5317 176.355 45.8115 176.507 46.1891 176.583C46.5552 176.667 46.9433 176.696 47.3534 176.671C47.743 176.643 48.0743 176.577 48.3474 176.473L51.1589 174.247C51.3199 174.12 51.5544 173.944 51.8625 173.718C52.1591 173.502 52.4487 173.301 52.7314 173.115C52.5627 172.949 52.3919 172.757 52.2189 172.538C52.0253 172.317 51.883 172.149 51.792 172.034L53.1029 170.996L56.6808 175.516L55.5596 176.403Z" fill="white"></path><path d="M47.1361 161.207C47.6668 162.137 47.9318 163.075 47.9313 164.021C47.918 164.974 47.6482 165.863 47.122 166.687C46.583 167.518 45.7976 168.228 44.7658 168.817C43.8741 169.325 42.9271 169.604 41.9247 169.653C40.9223 169.701 39.9819 169.503 39.1035 169.059C38.2051 168.609 37.4833 167.906 36.9381 166.951C36.6328 166.416 36.4112 165.85 36.2732 165.253C36.1226 164.664 36.1093 164.063 36.2334 163.452C36.3502 162.828 36.6452 162.221 37.1186 161.63C37.5846 161.026 38.2799 160.469 39.2043 159.958L42.8954 166.16C43.5833 165.768 44.1539 165.332 44.6071 164.854C45.0531 164.363 45.3227 163.83 45.4158 163.253C45.5089 162.676 45.3665 162.057 44.9885 161.394C44.8431 161.14 44.6349 160.878 44.364 160.611C44.0859 160.331 43.7504 160.083 43.3576 159.868C42.9447 159.648 42.4764 159.493 41.9525 159.403L42.2644 158.086C43.1757 158.173 43.9524 158.38 44.5944 158.706C45.2236 159.04 45.7446 159.435 46.1572 159.892C46.5627 160.336 46.889 160.774 47.1361 161.207ZM41.4925 166.809L39.4862 163.293C38.9584 163.611 38.5817 163.927 38.3559 164.242C38.1101 164.551 37.9826 164.86 37.9733 165.17C37.964 165.479 38.0466 165.786 38.2211 166.092C38.5409 166.653 38.9955 166.976 39.5849 167.062C40.1615 167.155 40.7974 167.071 41.4925 166.809Z" fill="white"></path><path d="M42.0235 155.056C41.8685 154.676 41.683 154.435 41.4672 154.333C41.2458 154.217 40.991 154.194 40.7027 154.264C40.4009 154.34 40.0735 154.45 39.7204 154.594L31.3476 158.008C31.1031 158.107 30.8219 158.214 30.504 158.328C30.1725 158.447 29.8519 158.554 29.542 158.649C29.6442 158.861 29.763 159.113 29.8984 159.406C30.0147 159.691 30.1101 159.906 30.1846 160.05L28.6363 160.681C28.376 160.043 28.1261 159.527 27.8866 159.134C27.6415 158.727 27.4215 158.42 27.2268 158.215C27.0265 157.995 26.8662 157.855 26.746 157.793L26.2975 156.693L38.3983 151.759C38.5884 151.682 38.8628 151.578 39.2214 151.447C39.5665 151.322 39.9008 151.21 40.2242 151.11C40.1029 150.89 39.9897 150.651 39.8844 150.393C39.7656 150.14 39.6786 149.946 39.6232 149.81L41.1714 149.179L43.3477 154.517L42.0235 155.056Z" fill="white"></path><path d="M31.1042 113.906C30.4889 113.875 30.0374 113.948 29.7496 114.125C29.4618 114.301 29.2802 114.557 29.2048 114.891C29.1155 115.209 29.0684 115.567 29.0633 115.963L29.0568 116.535L32.6604 116.715C33.0559 116.734 33.429 116.76 33.7799 116.793C34.1307 116.825 34.4006 116.86 34.5896 116.899L34.7363 113.955C34.7581 113.515 34.6841 113.086 34.5141 112.666C34.3294 112.246 34.0166 111.892 33.5757 111.606C33.12 111.319 32.4967 111.156 31.7057 111.116L31.7769 109.688L36.6054 110.039L36.0275 121.64L34.5773 121.568C34.5794 121.231 34.5493 120.95 34.487 120.727C34.4255 120.489 34.2658 120.304 34.0079 120.174C33.7508 120.029 33.3293 119.942 32.7434 119.913L24.3278 119.494C23.9323 119.474 23.5518 119.448 23.1863 119.415C22.8216 119.367 22.5443 119.331 22.3546 119.307C22.3576 119.542 22.3577 119.836 22.3548 120.188C22.3373 120.54 22.3318 120.797 22.3385 120.959L20.6466 120.874L21.1938 109.888L25.4631 109.968L25.3909 111.419C24.5852 111.378 23.9703 111.487 23.5463 111.745C23.1223 112.003 22.8342 112.334 22.6819 112.737C22.515 113.14 22.429 113.54 22.4239 113.936L22.4065 114.728C22.3912 115.036 22.422 115.302 22.4989 115.526C22.5612 115.749 22.7286 115.926 23.0011 116.057C23.2589 116.188 23.6735 116.267 24.2448 116.296L27.5407 116.46L27.6688 113.889L25.7528 113.882L25.837 112.19L31.1764 112.456L31.1042 113.906Z" fill="white"></path><path d="M35.8041 107.026C35.8821 106.623 35.8586 106.319 35.7336 106.116C35.6114 105.898 35.4105 105.74 35.1309 105.641C34.8368 105.539 34.5026 105.452 34.1282 105.38L25.2507 103.663C24.9915 103.613 24.6977 103.548 24.3693 103.47C24.0265 103.389 23.6995 103.303 23.3882 103.213C23.3581 103.446 23.3196 103.723 23.2727 104.042C23.2142 104.345 23.1769 104.576 23.1606 104.738L21.519 104.42C21.6499 103.743 21.7225 103.175 21.7369 102.714C21.754 102.24 21.7372 101.863 21.6865 101.584C21.6386 101.291 21.5812 101.086 21.5143 100.968L21.7399 99.802L34.5702 102.283C34.7718 102.322 35.0584 102.385 35.43 102.472C35.7872 102.556 36.1286 102.644 36.4543 102.737C36.4728 102.487 36.5085 102.225 36.5614 101.951C36.5999 101.675 36.6331 101.465 36.661 101.321L38.3026 101.638L37.2081 107.297L35.8041 107.026Z" fill="white"></path><path d="M41.0288 93.618C40.6895 94.6335 40.1672 95.4564 39.4617 96.0867C38.7424 96.7123 37.9003 97.1037 36.9355 97.2607C35.9568 97.4131 34.9041 97.301 33.7773 96.9246C32.8035 96.5993 31.9644 96.0792 31.2599 95.3645C30.5554 94.6497 30.076 93.8169 29.8215 92.8659C29.5578 91.8964 29.6003 90.89 29.9488 89.8467C30.144 89.2624 30.4181 88.72 30.7709 88.2193C31.1098 87.714 31.5484 87.3038 32.0866 86.9888C32.6295 86.6599 33.2789 86.4748 34.035 86.4336C34.7956 86.3785 35.6744 86.5252 36.6714 86.8737L34.5099 93.7597C35.2611 94.0106 35.966 94.1456 36.6246 94.1646C37.2878 94.1697 37.8654 94.0147 38.3572 93.6997C38.8491 93.3846 39.2158 92.8654 39.4575 92.1421C39.5504 91.8639 39.6063 91.5346 39.6251 91.1543C39.6486 90.7601 39.6095 90.3449 39.5077 89.9089C39.3967 89.4543 39.1999 89.002 38.9173 88.5519L40.1074 87.9057C40.6496 88.6435 41.0131 89.3603 41.1982 90.0562C41.3693 90.7473 41.4222 91.399 41.3569 92.0112C41.2961 92.6095 41.1868 93.1451 41.0288 93.618ZM33.0911 93.1465L34.3739 89.3071C33.785 89.1258 33.298 89.0559 32.913 89.0974C32.5188 89.1203 32.2033 89.2314 31.9667 89.4306C31.73 89.6299 31.5559 89.8965 31.4443 90.2303C31.2398 90.8424 31.3021 91.3967 31.631 91.8932C31.9461 92.385 32.4328 92.8028 33.0911 93.1465Z" fill="white"></path><path d="M46.2294 81.6262C45.7755 82.4978 45.1638 83.1962 44.3942 83.7214C43.6245 84.2467 42.7538 84.5374 41.782 84.5935C40.817 84.6366 39.8076 84.3838 38.7539 83.8351C38.0125 83.449 37.3809 82.963 36.8592 82.3771C36.3375 81.7912 35.9446 81.1484 35.6806 80.4487C35.4234 79.736 35.3109 78.9994 35.3431 78.239C35.3821 77.4655 35.5981 76.7016 35.991 75.9471C36.4245 75.1145 36.9137 74.4928 37.4584 74.082C37.9968 73.6513 38.5453 73.4078 39.1038 73.3514C39.6561 73.2752 40.1599 73.3557 40.6152 73.5928C40.9925 73.7893 41.2697 74.0825 41.447 74.4724C41.618 74.8426 41.6016 75.2392 41.3978 75.6623C41.1534 76.1634 40.8373 76.4369 40.4495 76.483C40.0487 76.5224 39.7117 76.4709 39.4385 76.3286C39.3215 76.2676 39.195 76.177 39.0593 76.0567C38.9105 75.9296 38.7914 75.7931 38.7019 75.6474C38.4594 75.6368 38.2452 75.6989 38.0592 75.8336C37.8733 75.9683 37.7166 76.1264 37.5889 76.308C37.4551 76.4698 37.3642 76.6126 37.3162 76.7364C37.0301 77.3812 37.0747 78.0576 37.45 78.7657C37.8254 79.4738 38.566 80.1158 39.6717 80.6916C40.3221 81.0303 40.9741 81.2707 41.6278 81.4126C42.2752 81.5348 42.8793 81.5021 43.44 81.3146C44.0007 81.127 44.46 80.7213 44.818 80.0974C45.1155 79.5579 45.2632 78.9568 45.261 78.2942C45.2588 77.6316 45.1184 76.9962 44.8397 76.3881L46.1852 75.9478C46.5918 76.7548 46.8321 77.5001 46.9061 78.1835C46.9801 78.867 46.9435 79.4929 46.7964 80.0612C46.6691 80.6232 46.4801 81.1449 46.2294 81.6262Z" fill="white"></path><path d="M52.788 71.2016C52.5307 71.5586 52.2403 71.8735 51.9168 72.1466C51.602 72.4078 51.2329 72.5937 50.8095 72.7044C50.3829 72.7945 49.8878 72.754 49.3242 72.5827C48.7606 72.4114 48.1041 72.0556 47.3545 71.5152L43.0795 68.3787L42.2046 69.5922L40.7235 68.5243C40.9775 68.1469 41.1099 67.7 41.1207 67.1834C41.1315 66.6668 41.0323 66.1523 40.8232 65.6399C40.6226 65.1156 40.3441 64.6617 39.9878 64.2782L40.9399 62.9576L43.4254 64.7768L45.0594 62.5104L46.4335 63.5011L44.853 65.8061L49.2301 68.989C49.5037 69.1863 49.7945 69.3598 50.1025 69.5095C50.4071 69.6387 50.7044 69.6903 50.9943 69.6643C51.2724 69.6298 51.5187 69.4638 51.7331 69.1663C51.8532 68.9998 51.9567 68.7309 52.0436 68.3596C52.139 67.9764 52.0689 67.4466 51.8332 66.7704L53.2538 66.4928C53.4981 67.1572 53.6268 67.7562 53.6397 68.2899C53.6527 68.8236 53.6029 69.294 53.4903 69.701C53.3862 70.0961 53.2603 70.4211 53.1126 70.6762C52.9648 70.9313 52.8566 71.1065 52.788 71.2016Z" fill="white"></path><path d="M55.5228 64.8084C55.8065 64.5115 55.9508 64.2437 55.9557 64.005C55.9607 63.7663 55.8723 63.5297 55.6906 63.2952C55.5085 63.04 55.2795 62.7807 55.0038 62.5173L52.3316 59.9639C52.1407 59.7816 51.9337 59.5736 51.7105 59.3401C51.4768 59.0964 51.2534 58.8526 51.0404 58.6084C50.8888 58.7882 50.7069 58.9999 50.4946 59.2433C50.2818 59.466 50.125 59.6407 50.0242 59.7675L48.8153 58.6124L49.4232 57.9761C49.8184 57.5626 50.1251 57.1355 50.3433 56.6948C50.5716 56.2436 50.6834 55.9142 50.6787 55.7069L51.4234 54.9275C51.5497 55.0076 51.7664 55.1842 52.0734 55.4573C52.3699 55.7203 52.6294 55.9581 52.8521 56.1709C52.7758 55.5502 52.7531 55.0113 52.7842 54.5542C52.8153 54.097 52.8997 53.7009 53.0373 53.3658C53.1744 53.01 53.3646 52.7049 53.6077 52.4504C53.9624 52.0792 54.3774 51.8571 54.853 51.7841C55.3179 51.7009 55.7836 51.8822 56.2502 52.328C56.4093 52.48 56.5435 52.6792 56.6528 52.9257C56.7516 53.162 56.7833 53.4155 56.7479 53.686C56.7126 53.9565 56.5632 54.2296 56.2998 54.5053C56.0971 54.7174 55.8258 54.874 55.4858 54.9751C55.1457 55.0762 54.7802 54.9704 54.3893 54.6577C54.1867 54.8698 54.0741 55.168 54.0518 55.5523C54.0188 55.9265 54.0432 56.315 54.125 56.7177C54.2063 57.0997 54.3173 57.4187 54.458 57.6749L57.0507 60.1522C57.1991 60.2941 57.4061 60.502 57.6717 60.7761C57.9267 61.04 58.166 61.2991 58.3896 61.5533C58.5305 61.3634 58.6972 61.1677 58.8897 60.9662C59.0818 60.744 59.2285 60.5798 59.3298 60.4738L60.5387 61.6289L56.5567 65.7963L55.5228 64.8084Z" fill="white"></path><path d="M69.5415 54.2683C68.7032 54.9105 67.8082 55.3098 66.8564 55.4662C65.9046 55.6227 64.9766 55.5207 64.0723 55.1603C63.1708 54.7794 62.3721 54.1349 61.6764 53.2268C60.936 52.2605 60.4873 51.2647 60.3301 50.2396C60.1757 49.194 60.2786 48.219 60.639 47.3147C61.002 46.3899 61.5794 45.6242 62.3711 45.0176C63.2094 44.3754 64.0986 43.9806 65.0387 43.8331C65.9789 43.6855 66.8997 43.8023 67.8013 44.1832C68.6939 44.5524 69.497 45.2028 70.2106 46.1342C70.9598 47.1122 71.4247 48.1048 71.6051 49.1121C71.7856 50.1193 71.7015 51.0706 71.3528 51.966C70.9951 52.8497 70.3914 53.6171 69.5415 54.2683ZM68.6614 52.9748C69.1181 52.6064 69.3425 52.1758 69.3346 51.6831C69.3382 51.1814 69.2038 50.6562 68.9312 50.1075C68.6586 49.5588 68.335 49.04 67.9604 48.551C67.6304 48.1202 67.261 47.7104 66.8522 47.3215C66.455 46.9236 66.0483 46.5978 65.6321 46.3439C65.2159 46.09 64.8008 45.9461 64.3868 45.9122C63.9845 45.8694 63.6131 45.9876 63.2728 46.2669C62.8276 46.6264 62.5916 47.0659 62.5646 47.5854C62.5493 48.096 62.6663 48.6345 62.9156 49.2011C63.1676 49.7471 63.4898 50.2762 63.8823 50.7885C64.3372 51.3822 64.8472 51.9153 65.4124 52.3877C65.9775 52.86 66.5425 53.1755 67.1074 53.334C67.6749 53.4719 68.1929 53.3522 68.6614 52.9748Z" fill="white"></path><path d="M76.0811 49.16L75.4212 47.8913C75.7855 47.7018 76.0086 47.4949 76.0902 47.2706C76.1719 47.0462 76.1646 46.7938 76.0683 46.5132C75.9782 46.2129 75.8452 45.8936 75.6692 45.5553L73.9637 42.2763C73.8419 42.0421 73.713 41.7785 73.5771 41.4855C73.4345 41.1795 73.3017 40.8765 73.1789 40.5767C72.9774 40.698 72.737 40.8396 72.4575 41.0016C72.1842 41.1437 71.9794 41.2585 71.8431 41.3459L71.0715 39.8626C71.6701 39.5513 72.1606 39.2548 72.5431 38.9732C72.9257 38.6915 73.2104 38.4442 73.3972 38.2313C73.597 38.0117 73.7222 37.8391 73.7727 37.7137L74.729 37.2162C74.8431 37.3718 74.9204 37.4887 74.961 37.5667C75.0016 37.6448 75.0422 37.7229 75.0828 37.801C75.1296 37.8592 75.22 37.9693 75.3537 38.1312C75.5057 37.7876 75.7102 37.4498 75.9673 37.1177C76.2176 36.7726 76.4883 36.4665 76.7792 36.1994C77.0633 35.9194 77.3355 35.7117 77.5958 35.5763C78.7929 34.9537 79.818 34.8586 80.6711 35.291C81.5305 35.7037 82.3528 36.6647 83.1378 38.174L84.4982 40.7894C84.593 40.9716 84.7218 41.2352 84.8848 41.5802C85.0409 41.9123 85.1839 42.2347 85.3135 42.5475C85.5212 42.4065 85.7486 42.2716 85.9958 42.143C86.2363 42.0014 86.4216 41.8968 86.5517 41.8291L87.3232 43.3125L82.2096 45.9723L81.5497 44.7036C81.9141 44.5141 82.1371 44.3072 82.2188 44.0829C82.3135 43.8517 82.3127 43.5959 82.2164 43.3154C82.1263 43.0151 81.9932 42.6957 81.8173 42.3574L80.3562 39.5961C79.9163 38.7503 79.4678 38.1901 79.0108 37.9153C78.56 37.6207 78.0483 37.6224 77.4758 37.9201C77.1505 38.0893 76.8624 38.3301 76.6116 38.6424C76.3738 38.948 76.195 39.2559 76.0753 39.5661C76.1701 39.7483 76.2682 39.937 76.3697 40.1321C76.4645 40.3143 76.5592 40.4965 76.654 40.6786L78.3697 43.9771C78.4644 44.1593 78.5933 44.4229 78.7562 44.768C78.9124 45.1 79.0553 45.4225 79.185 45.7353C79.3796 45.601 79.6006 45.4695 79.8478 45.3409C80.1012 45.1925 80.293 45.0845 80.4232 45.0168L81.1947 46.5002L76.0811 49.16Z" fill="white"></path><path d="M89.5964 41.1425C89.9846 41.0087 90.2357 40.8369 90.3495 40.6271C90.4634 40.4172 90.4933 40.1664 90.4394 39.8748C90.3945 39.5645 90.31 39.229 90.1858 38.8685L88.9961 35.4157C88.9101 35.1661 88.8191 34.8794 88.7231 34.5557C88.6223 34.2181 88.5332 33.892 88.4559 33.5774C88.2388 33.6677 87.9801 33.7724 87.6798 33.8913C87.3886 33.9917 87.1691 34.075 87.0213 34.1415L86.4767 32.5607C87.1146 32.3409 87.6434 32.1199 88.0633 31.8977C88.4831 31.6755 88.8011 31.4728 89.0173 31.2898C89.2473 31.1019 89.3965 30.9497 89.4649 30.833L90.5881 30.446L93.0892 37.7053C93.1561 37.8994 93.2447 38.1791 93.3551 38.5444C93.4606 38.8959 93.5545 39.2358 93.6366 39.5643C93.849 39.4602 94.0868 39.3627 94.3503 39.2719C94.6229 39.1625 94.8285 39.0839 94.9671 39.0361L95.5118 40.6169L90.0622 42.4945L89.5964 41.1425ZM88.4412 29.3475C87.9697 29.5099 87.5241 29.4773 87.1044 29.2496C86.6846 29.0219 86.3936 28.6723 86.2311 28.2009C86.0687 27.7294 86.0896 27.2723 86.2939 26.8296C86.4981 26.3869 86.8152 26.0915 87.2451 25.9434C87.6888 25.7906 88.1136 25.8304 88.5195 26.0628C88.9392 26.2905 89.2303 26.6401 89.3927 27.1116C89.5552 27.583 89.5551 28.0329 89.3924 28.4613C89.2297 28.8896 88.9126 29.185 88.4412 29.3475Z" fill="white"></path><path d="M104.006 38.9484C103.042 39.1409 102.114 39.1018 101.223 38.8311C100.331 38.5605 99.559 38.0641 98.9063 37.342C98.268 36.6169 97.8325 35.6719 97.5998 34.5069C97.4361 33.6871 97.4191 32.8903 97.5487 32.1166C97.6784 31.3429 97.9331 30.634 98.313 29.9898C98.7073 29.3427 99.2108 28.7935 99.8236 28.3421C100.451 27.8878 101.181 27.5773 102.016 27.4107C102.936 27.2269 103.727 27.2185 104.389 27.3855C105.062 27.5353 105.595 27.8101 105.989 28.2101C106.395 28.5927 106.648 29.0358 106.748 29.5392C106.831 29.9563 106.777 30.3561 106.584 30.7386C106.402 31.1038 106.083 31.3396 105.626 31.4459C105.082 31.5694 104.671 31.4945 104.392 31.2212C104.11 30.9335 103.939 30.6386 103.879 30.3365C103.853 30.2071 103.844 30.0518 103.853 29.8706C103.859 29.675 103.89 29.4966 103.948 29.3356C103.804 29.14 103.622 29.0119 103.4 28.9514C103.179 28.891 102.957 28.8679 102.736 28.8822C102.526 28.8793 102.357 28.8979 102.231 28.9382C101.549 29.1192 101.05 29.5778 100.733 30.3141C100.417 31.0503 100.381 32.0297 100.625 33.2522C100.768 33.9714 100.99 34.6301 101.289 35.2285C101.599 35.8096 102.003 36.2599 102.501 36.5793C102.998 36.8987 103.602 37.0025 104.313 36.8905C104.92 36.7842 105.48 36.5226 105.995 36.1057C106.51 35.6888 106.918 35.1812 107.217 34.583L108.403 35.3557C108.029 36.1782 107.599 36.8325 107.113 37.3184C106.626 37.8044 106.116 38.1681 105.581 38.4096C105.063 38.6625 104.538 38.8422 104.006 38.9484Z" fill="white"></path><path d="M116.913 37.5035C116.283 37.5325 115.664 37.4802 115.056 37.3467C114.448 37.2132 113.969 37.0296 113.621 36.7961L113.695 37.4534L112.025 37.5302L111.763 33.7543L113.192 33.6885C113.256 34.126 113.45 34.5209 113.775 34.873C114.099 35.2251 114.516 35.4996 115.024 35.6964C115.532 35.8786 116.093 35.9555 116.708 35.9272C116.957 35.9158 117.19 35.8683 117.407 35.785C117.638 35.7009 117.823 35.5749 117.962 35.407C118.115 35.2238 118.186 35.0077 118.174 34.7586C118.161 34.4802 118.048 34.2578 117.835 34.0915C117.637 33.9244 117.343 33.7691 116.955 33.6255C116.581 33.4811 116.111 33.3193 115.545 33.1398C115.083 32.9848 114.613 32.8229 114.135 32.6541C113.672 32.4845 113.237 32.277 112.829 32.0314C112.435 31.7706 112.112 31.4478 111.86 31.063C111.606 30.6636 111.466 30.1708 111.439 29.5848C111.42 29.1599 111.481 28.7386 111.623 28.321C111.765 27.8887 111.996 27.4963 112.318 27.1438C112.639 26.7766 113.051 26.4787 113.554 26.25C114.072 26.0206 114.69 25.8894 115.408 25.8564C115.804 25.8381 116.253 25.8835 116.758 25.9924C117.276 26.0861 117.716 26.2493 118.08 26.4822L118.05 25.8449L119.72 25.768L119.899 29.6579L118.471 29.7236C118.359 29.2149 118.156 28.7838 117.861 28.4303C117.58 28.0762 117.223 27.8136 116.79 27.6427C116.355 27.4572 115.874 27.3765 115.347 27.4008C114.981 27.4177 114.648 27.5211 114.348 27.711C114.063 27.9003 113.93 28.2074 113.95 28.6323C113.966 28.9693 114.095 29.2349 114.339 29.4293C114.582 29.609 114.912 29.7553 115.328 29.8683C115.745 29.9812 116.206 30.1142 116.712 30.2671C117.471 30.4817 118.144 30.7444 118.73 31.0551C119.332 31.3651 119.812 31.7541 120.172 32.2221C120.53 32.6754 120.725 33.2464 120.757 33.935C120.792 34.6968 120.631 35.3356 120.273 35.8513C119.915 36.3669 119.434 36.7635 118.83 37.0409C118.241 37.3176 117.602 37.4718 116.913 37.5035Z" fill="white"></path><path d="M147.259 41.5157L147.875 40.1279C148.25 40.2943 148.599 40.3208 148.922 40.2073C149.245 40.0938 149.558 39.8954 149.86 39.6122C150.175 39.3349 150.496 39.0278 150.822 38.6909L159.513 29.6689L160.921 30.2929L160.347 43.1532C160.338 43.39 160.308 43.746 160.258 44.2211C160.214 44.6828 160.137 45.0737 160.027 45.394C160.267 45.4683 160.487 45.5499 160.689 45.6391C160.909 45.7208 161.086 45.7913 161.22 45.8507L160.534 47.3994L155.124 45.0014L155.712 43.6739C156.087 43.8403 156.375 43.8795 156.574 43.7914C156.793 43.6959 156.955 43.5111 157.061 43.237C157.166 42.9629 157.226 42.6285 157.241 42.2338L157.329 40.9493L152.929 39.0953L152.188 39.898C152.043 40.0426 151.827 40.2595 151.538 40.5486C151.269 40.8304 151.03 41.0614 150.822 41.2418C151.048 41.3101 151.309 41.4096 151.604 41.5404C151.919 41.6637 152.143 41.755 152.277 41.8144L151.564 43.4235L147.259 41.5157ZM154.1 37.8097L157.459 39.2985L157.648 36.3743C157.688 35.8143 157.747 35.2632 157.827 34.7211C157.913 34.1656 158.006 33.6852 158.105 33.28L158.085 33.2711C157.93 33.4753 157.698 33.7816 157.389 34.1899C157.08 34.5983 156.671 35.067 156.164 35.5962L154.1 37.8097Z" fill="white"></path><path d="M159.051 53.19L159.86 52.0107C160.199 52.243 160.486 52.3424 160.723 52.3089C160.971 52.2837 161.201 52.1565 161.411 51.9274C161.625 51.7187 161.84 51.4571 162.056 51.1426L167.32 43.4683C167.469 43.2505 167.641 43.0128 167.836 42.755C168.038 42.4851 168.243 42.2254 168.45 41.9759C168.248 41.8553 168.01 41.7097 167.736 41.5393C167.47 41.3568 167.266 41.226 167.125 41.1468L168.07 39.768C168.639 40.1579 169.131 40.4512 169.548 40.6479C169.976 40.8529 170.328 40.9877 170.604 41.0524C170.892 41.1253 171.103 41.1545 171.238 41.14L172.126 41.7498C172.068 41.8873 171.982 42.0509 171.87 42.2407C171.766 42.4183 171.682 42.5657 171.62 42.6828C172.292 42.6103 172.884 42.6425 173.394 42.7794C173.917 42.9247 174.366 43.1258 174.741 43.383C175.467 43.8808 175.973 44.5038 176.26 45.252C176.56 46.0086 176.624 46.8353 176.453 47.7321C176.295 48.6372 175.896 49.5554 175.258 50.4867C174.594 51.4543 173.809 52.1966 172.903 52.7135C172.006 53.2183 171.069 53.4562 170.093 53.427C169.129 53.4062 168.194 53.0847 167.287 52.4625C166.96 52.2385 166.689 51.999 166.472 51.7439C166.26 51.5092 166.068 51.2708 165.896 51.0285L164.701 52.7702C164.585 52.9395 164.417 53.1712 164.198 53.4653C163.982 53.7798 163.767 54.0678 163.552 54.3294C163.762 54.4379 163.986 54.565 164.224 54.7105C164.454 54.8681 164.629 54.9884 164.75 55.0714L163.805 56.4502L159.051 53.19ZM167.93 50.9027C168.494 51.2722 169.036 51.4034 169.554 51.2964C170.092 51.1855 170.6 50.9115 171.078 50.4743C171.556 50.0372 171.998 49.5223 172.404 48.9297C172.786 48.3733 173.08 47.8015 173.287 47.2144C173.494 46.6272 173.556 46.0829 173.473 45.5814C173.399 45.0678 173.122 44.6553 172.642 44.3439C172.331 44.1486 171.999 44.0364 171.645 44.0074C171.3 43.9662 170.96 44.0085 170.624 44.1342C170.367 44.5092 170.11 44.8841 169.853 45.2591C169.604 45.6219 169.355 45.9848 169.106 46.3477C168.857 46.7105 168.604 47.0794 168.347 47.4544C168.098 47.8172 167.845 48.1861 167.588 48.5611C167.339 48.9239 167.086 49.2928 166.829 49.6678C166.904 49.8437 167.038 50.0509 167.23 50.2894C167.422 50.5279 167.655 50.7323 167.93 50.9027Z" fill="white"></path><path d="M170.326 61.1973L171.331 60.1793C171.623 60.4677 171.888 60.6162 172.127 60.625C172.376 60.644 172.624 60.5594 172.872 60.371C173.12 60.2034 173.378 59.9838 173.645 59.7124L180.181 53.0873C180.366 52.8994 180.577 52.6957 180.814 52.4763C181.062 52.2464 181.309 52.0269 181.557 51.8178C181.379 51.6635 181.171 51.4782 180.93 51.2621C180.701 51.0355 180.523 50.8707 180.398 50.7679L181.572 49.5776C182.063 50.0617 182.496 50.4373 182.871 50.7043C183.257 50.9817 183.58 51.1766 183.84 51.2889C184.11 51.4115 184.313 51.4775 184.448 51.487L185.215 52.244C185.133 52.369 185.02 52.515 184.876 52.6819C184.742 52.8384 184.634 52.9688 184.552 53.0731C185.226 53.1203 185.803 53.2564 186.282 53.4813C186.771 53.7165 187.177 53.9938 187.501 54.3131C188.127 54.9311 188.516 55.6336 188.666 56.4208C188.827 57.2183 188.745 58.0434 188.419 58.896C188.103 59.759 187.549 60.5925 186.756 61.3964C185.932 62.2317 185.028 62.8239 184.045 63.1728C183.073 63.5113 182.109 63.5801 181.153 63.3792C180.208 63.1886 179.344 62.7071 178.561 61.9346C178.279 61.6565 178.054 61.3728 177.886 61.0835C177.718 60.815 177.571 60.5464 177.445 60.2776L175.962 61.7812C175.818 61.9273 175.612 62.1258 175.344 62.3765C175.076 62.648 174.813 62.8935 174.555 63.1131C174.743 63.257 174.941 63.4216 175.15 63.6068C175.348 63.8025 175.5 63.9519 175.604 64.0549L174.43 65.2452L170.326 61.1973ZM179.469 60.5127C179.96 60.9761 180.469 61.2008 180.998 61.1868C181.548 61.1727 182.096 60.9926 182.643 60.6466C183.191 60.3007 183.717 59.8719 184.221 59.3602C184.695 58.8799 185.086 58.3691 185.393 57.8277C185.701 57.2863 185.858 56.7615 185.865 56.2532C185.882 55.7346 185.682 55.2796 185.264 54.8883C184.993 54.6413 184.686 54.4723 184.343 54.3813C184.011 54.2798 183.668 54.2614 183.316 54.326C182.997 54.6497 182.677 54.9734 182.358 55.2971C182.049 55.6103 181.74 55.9236 181.431 56.2368C181.122 56.55 180.808 56.8685 180.489 57.1922C180.18 57.5054 179.866 57.8239 179.546 58.1476C179.237 58.4608 178.923 58.7793 178.604 59.1029C178.647 59.2893 178.741 59.5169 178.888 59.7855C179.035 60.0541 179.229 60.2966 179.469 60.5127Z" fill="white"></path><path d="M185.614 67.0659C185.863 67.3926 186.105 67.577 186.34 67.6193C186.584 67.6732 186.836 67.6288 187.096 67.4861C187.367 67.3344 187.655 67.1431 187.958 66.912L195.151 61.4331C195.361 61.2731 195.605 61.0967 195.882 60.904C196.171 60.7024 196.453 60.5155 196.727 60.3433C196.573 60.1655 196.393 59.9527 196.186 59.7049C195.999 59.4599 195.851 59.2776 195.742 59.1582L197.072 58.1451C197.489 58.6934 197.865 59.1262 198.199 59.4435C198.542 59.7724 198.834 60.0108 199.076 60.1586C199.326 60.318 199.517 60.412 199.65 60.4403L200.37 61.3854L189.974 69.3039C189.81 69.4283 189.573 69.6002 189.26 69.8196C188.96 70.0301 188.667 70.2259 188.38 70.407C188.555 70.5875 188.726 70.7887 188.895 71.0103C189.076 71.2231 189.211 71.3879 189.299 71.5045L187.969 72.5177L184.477 67.9324L185.614 67.0659Z" fill="white"></path><path d="M191.053 74.5689C191.265 74.9206 191.485 75.1301 191.714 75.1976C191.943 75.265 192.195 75.2418 192.469 75.128C192.763 75.0193 193.073 74.8664 193.4 74.6695L196.527 72.7839C196.753 72.6476 197.015 72.4987 197.311 72.3371C197.62 72.1679 197.92 72.0126 198.212 71.8711C198.078 71.6777 197.922 71.4466 197.743 71.1779C197.584 70.9141 197.456 70.7169 197.36 70.5863L198.792 69.723C199.14 70.3008 199.467 70.7717 199.772 71.1358C200.077 71.4999 200.342 71.7685 200.566 71.9415C200.798 72.1272 200.978 72.2412 201.107 72.2837L201.72 73.3011L195.145 77.2654C194.969 77.3714 194.714 77.5166 194.38 77.7009C194.058 77.8777 193.745 78.0406 193.441 78.1896C193.587 78.3755 193.733 78.5877 193.876 78.8263C194.04 79.07 194.16 79.2546 194.236 79.3802L192.804 80.2435L189.828 75.3072L191.053 74.5689ZM202.345 70.9719C202.088 70.5448 202.026 70.1023 202.161 69.6442C202.296 69.1861 202.577 68.8283 203.004 68.5709C203.431 68.3134 203.883 68.2382 204.358 68.3454C204.834 68.4525 205.189 68.7008 205.424 69.0902C205.666 69.4921 205.716 69.9158 205.574 70.3613C205.439 70.8194 205.158 71.1772 204.731 71.4347C204.304 71.6921 203.864 71.7861 203.411 71.7167C202.958 71.6472 202.603 71.3989 202.345 70.9719Z" fill="white"></path><path d="M196.901 88.9106C197.078 88.8022 197.224 88.7151 197.339 88.6493C197.474 88.5911 197.626 88.5175 197.795 88.4284C197.139 88.1684 196.607 87.8234 196.197 87.3932C195.788 86.963 195.469 86.4854 195.242 85.9603C194.87 85.0986 194.835 84.3149 195.137 83.6092C195.439 82.9034 195.974 82.3848 196.742 82.0532C197.388 81.7739 198.01 81.697 198.607 81.8223C199.21 81.9611 199.77 82.2387 200.285 82.6551C200.82 83.0791 201.304 83.589 201.737 84.1847C202.189 84.7881 202.574 85.4205 202.892 86.0821L203.942 85.6283C204.292 85.4771 204.588 85.2933 204.831 85.0768C205.078 84.8739 205.236 84.6298 205.305 84.3446C205.379 84.0728 205.328 83.7514 205.152 83.3802C205.028 83.1302 204.866 82.9044 204.667 82.7028C204.469 82.5012 204.244 82.3506 203.993 82.2512C203.918 82.4113 203.813 82.5368 203.676 82.6277C203.553 82.7128 203.438 82.7786 203.33 82.8252C203.061 82.9415 202.732 82.956 202.343 82.8685C201.967 82.7753 201.684 82.4901 201.494 82.0131C201.333 81.6034 201.34 81.2326 201.516 80.9009C201.692 80.5691 201.962 80.3247 202.326 80.1676C202.864 79.9349 203.41 79.9227 203.964 80.131C204.536 80.3469 205.07 80.7315 205.565 81.2846C206.073 81.832 206.495 82.4961 206.833 83.277C207.345 84.4618 207.431 85.5111 207.091 86.425C206.77 87.3465 205.936 88.0981 204.59 88.6798C204.132 88.8776 203.742 89.0463 203.419 89.1859C203.095 89.3256 202.769 89.4585 202.44 89.5846C202.117 89.7242 201.727 89.8929 201.269 90.0907C201.081 90.1722 200.808 90.2818 200.453 90.4196C200.11 90.5515 199.778 90.671 199.457 90.7778C199.583 90.9951 199.701 91.2316 199.812 91.4874C199.935 91.7374 200.027 91.9297 200.085 92.0644L198.55 92.7275L196.901 88.9106ZM201.45 86.6815C201.246 86.3219 201.025 85.9942 200.785 85.6984C200.546 85.4025 200.29 85.1615 200.018 84.9755C199.751 84.803 199.472 84.6921 199.179 84.6429C198.892 84.6072 198.607 84.6504 198.324 84.7726C197.953 84.9489 197.736 85.1864 197.673 85.4851C197.611 85.7838 197.643 86.0813 197.771 86.3775C197.905 86.6871 198.098 86.9475 198.349 87.1586C198.6 87.3697 198.879 87.5364 199.188 87.6588C199.322 87.6006 199.45 87.5453 199.571 87.493C199.706 87.4348 199.841 87.3766 199.975 87.3185C200.218 87.2137 200.46 87.109 200.702 87.0043C200.958 86.8938 201.207 86.7862 201.45 86.6815Z" fill="white"></path><path d="M199.456 95.445L200.846 95.1092C200.942 95.5084 201.09 95.7746 201.288 95.9078C201.486 96.041 201.733 96.0945 202.028 96.0684C202.341 96.0531 202.683 96.0007 203.054 95.9112L206.647 95.0433C206.903 94.9813 207.19 94.9195 207.507 94.858C207.838 94.7931 208.164 94.737 208.485 94.6897C208.416 94.4651 208.336 94.1976 208.246 93.8874C208.174 93.588 208.111 93.3617 208.059 93.2083L209.684 92.8157C209.843 93.4715 210.013 94.0189 210.194 94.4579C210.376 94.8969 210.547 95.2326 210.709 95.4651C210.874 95.7119 211.012 95.8748 211.121 95.954L211.375 97.0018C211.196 97.0751 211.064 97.1221 210.979 97.1428C210.893 97.1634 210.808 97.1841 210.722 97.2047C210.654 97.2362 210.526 97.2975 210.336 97.3884C210.633 97.6185 210.912 97.8982 211.173 98.2275C211.448 98.5534 211.68 98.8896 211.869 99.2362C212.073 99.5793 212.209 99.8934 212.278 100.179C212.595 101.49 212.441 102.508 211.816 103.232C211.209 103.967 210.079 104.535 208.425 104.934L205.559 105.627C205.36 105.675 205.073 105.736 204.699 105.812C204.339 105.884 203.991 105.945 203.657 105.996C203.744 106.231 203.82 106.484 203.885 106.755C203.965 107.023 204.022 107.228 204.057 107.37L202.431 107.763L201.078 102.16L202.468 101.824C202.564 102.223 202.712 102.489 202.91 102.623C203.111 102.77 203.36 102.831 203.655 102.805C203.969 102.789 204.31 102.737 204.681 102.647L207.713 101.892C208.639 101.669 209.291 101.368 209.667 100.99C210.062 100.623 210.183 100.126 210.031 99.4991C209.945 99.1426 209.781 98.8052 209.538 98.4866C209.298 98.1824 209.042 97.9349 208.77 97.7442C208.571 97.7924 208.364 97.8423 208.15 97.894C207.95 97.9422 207.751 97.9904 207.551 98.0386L203.937 98.9116C203.738 98.9599 203.451 99.0216 203.077 99.0969C202.717 99.1687 202.369 99.23 202.035 99.2807C202.118 99.5019 202.193 99.748 202.258 100.019C202.341 100.301 202.4 100.513 202.435 100.655L200.809 101.048L199.456 95.445Z" fill="white"></path><path d="M202.635 115.723C202.57 114.743 202.73 113.828 203.115 112.98C203.499 112.131 204.092 111.43 204.894 110.877C205.696 110.339 206.69 110.031 207.875 109.952C208.709 109.897 209.501 109.984 210.251 110.213C211.002 110.443 211.671 110.788 212.26 111.249C212.85 111.724 213.329 112.295 213.697 112.962C214.065 113.643 214.278 114.408 214.334 115.256C214.396 116.193 214.301 116.978 214.049 117.612C213.813 118.26 213.471 118.753 213.023 119.092C212.59 119.444 212.118 119.637 211.606 119.671C211.182 119.699 210.792 119.592 210.438 119.351C210.1 119.124 209.908 118.776 209.862 118.309C209.811 117.754 209.939 117.356 210.246 117.115C210.568 116.873 210.883 116.742 211.19 116.722C211.322 116.713 211.477 116.725 211.655 116.757C211.849 116.788 212.021 116.843 212.173 116.921C212.386 116.804 212.537 116.64 212.626 116.428C212.715 116.216 212.766 116 212.781 115.778C212.811 115.57 212.815 115.401 212.792 115.27C212.701 114.571 212.311 114.016 211.623 113.606C210.934 113.196 209.968 113.032 208.724 113.115C207.992 113.163 207.31 113.297 206.678 113.515C206.061 113.747 205.562 114.089 205.181 114.54C204.799 114.992 204.617 115.577 204.636 116.296C204.662 116.912 204.848 117.502 205.194 118.067C205.54 118.632 205.99 119.102 206.544 119.477L205.623 120.552C204.857 120.074 204.264 119.562 203.846 119.016C203.427 118.471 203.133 117.917 202.964 117.355C202.781 116.809 202.671 116.265 202.635 115.723Z" fill="white"></path><path d="M202.366 128.837C202.464 127.771 202.784 126.851 203.327 126.076C203.884 125.302 204.614 124.728 205.517 124.354C206.435 123.982 207.485 123.85 208.668 123.959C209.691 124.053 210.627 124.367 211.476 124.901C212.325 125.436 212.983 126.137 213.448 127.004C213.927 127.888 214.116 128.877 214.015 129.972C213.959 130.586 213.816 131.177 213.588 131.745C213.373 132.314 213.04 132.814 212.588 133.244C212.135 133.688 211.545 134.017 210.819 134.23C210.091 134.458 209.202 134.516 208.152 134.405L208.68 127.207C207.891 127.135 207.174 127.165 206.528 127.297C205.882 127.444 205.355 127.727 204.948 128.146C204.542 128.566 204.303 129.155 204.234 129.914C204.207 130.207 204.228 130.54 204.297 130.914C204.364 131.304 204.497 131.699 204.696 132.1C204.908 132.517 205.203 132.912 205.581 133.286L204.571 134.187C203.874 133.593 203.356 132.978 203.017 132.343C202.692 131.71 202.491 131.088 202.415 130.477C202.337 129.88 202.321 129.334 202.366 128.837ZM210.201 127.479L209.831 131.511C210.446 131.552 210.936 131.509 211.301 131.38C211.68 131.268 211.962 131.087 212.146 130.839C212.331 130.591 212.44 130.292 212.472 129.941C212.531 129.299 212.343 128.773 211.909 128.365C211.49 127.959 210.921 127.663 210.201 127.479Z" fill="white"></path><path d="M200.081 141.601C200.233 140.989 200.459 140.411 200.76 139.866C201.061 139.321 201.373 138.914 201.696 138.647L201.045 138.531L201.447 136.908L205.141 137.731L204.798 139.12C204.36 139.057 203.926 139.131 203.496 139.341C203.066 139.552 202.685 139.873 202.351 140.305C202.032 140.739 201.799 141.256 201.651 141.854C201.591 142.096 201.57 142.332 201.588 142.563C201.603 142.809 201.671 143.022 201.792 143.203C201.925 143.402 202.112 143.532 202.354 143.591C202.624 143.658 202.87 143.613 203.09 143.456C203.306 143.314 203.539 143.076 203.787 142.745C204.032 142.428 204.321 142.023 204.654 141.532C204.934 141.133 205.223 140.728 205.521 140.318C205.815 139.923 206.138 139.565 206.489 139.244C206.851 138.94 207.253 138.723 207.694 138.59C208.149 138.461 208.661 138.467 209.23 138.608C209.643 138.71 210.03 138.888 210.39 139.144C210.764 139.402 211.074 139.736 211.32 140.145C211.581 140.557 211.749 141.036 211.825 141.584C211.898 142.146 211.848 142.776 211.675 143.473C211.58 143.858 211.408 144.276 211.16 144.728C210.923 145.199 210.641 145.575 210.315 145.856L210.934 146.01L210.532 147.633L206.752 146.697L207.096 145.309C207.615 145.347 208.087 145.275 208.509 145.092C208.929 144.924 209.282 144.656 209.569 144.289C209.871 143.926 210.085 143.488 210.212 142.975C210.3 142.619 210.296 142.271 210.199 141.929C210.098 141.602 209.842 141.388 209.429 141.286C209.101 141.205 208.81 141.253 208.554 141.432C208.313 141.614 208.079 141.888 207.852 142.255C207.625 142.622 207.366 143.026 207.076 143.468C206.654 144.134 206.211 144.705 205.746 145.179C205.277 145.667 204.768 146.017 204.217 146.228C203.68 146.443 203.077 146.468 202.408 146.302C201.668 146.119 201.101 145.782 200.709 145.292C200.316 144.802 200.073 144.228 199.979 143.57C199.882 142.927 199.916 142.27 200.081 141.601Z" fill="white"></path><path d="M188.108 171.286C187.897 171.55 187.748 171.789 187.659 172.003C187.56 172.228 187.572 172.472 187.694 172.734C187.807 173.006 188.084 173.335 188.527 173.72L194.886 179.249C195.185 179.509 195.468 179.764 195.735 180.016C195.992 180.279 196.188 180.478 196.322 180.614C196.465 180.428 196.647 180.197 196.866 179.921C197.097 179.656 197.26 179.457 197.355 179.326L198.633 180.437L194.45 185.283C193.497 186.379 192.508 187.181 191.483 187.689C190.46 188.218 189.45 188.496 188.454 188.524C187.448 188.563 186.492 188.412 185.584 188.07C184.687 187.737 183.896 187.273 183.21 186.676C182.535 186.089 181.954 185.371 181.469 184.521C180.974 183.682 180.654 182.753 180.51 181.734C180.377 180.725 180.484 179.652 180.831 178.515C181.189 177.388 181.873 176.243 182.883 175.081L187.012 170.333L188.108 171.286ZM186.617 176.286C186.318 176.027 186.035 175.771 185.768 175.519C185.501 175.267 185.305 175.068 185.18 174.921C185.095 175.041 184.965 175.191 184.79 175.369C184.617 175.568 184.434 175.768 184.24 175.969C184.057 176.179 183.908 176.351 183.792 176.484C183.263 177.092 182.933 177.718 182.801 178.362C182.659 179.016 182.673 179.66 182.842 180.293C183.012 180.946 183.3 181.565 183.705 182.15C184.109 182.736 184.588 183.269 185.142 183.75C186.271 184.731 187.33 185.38 188.319 185.696C189.308 186.011 190.224 186.041 191.069 185.784C191.905 185.539 192.67 185.038 193.366 184.283C193.608 184.027 193.778 183.776 193.875 183.53C193.974 183.305 193.962 183.061 193.839 182.799C193.717 182.538 193.44 182.219 193.009 181.844L186.617 176.286Z" fill="white"></path><path d="M170.83 186.089C171.668 185.423 172.555 185.018 173.49 184.875C174.434 184.743 175.353 184.875 176.247 185.27C177.151 185.676 177.972 186.344 178.711 187.275C179.349 188.079 179.768 188.972 179.969 189.956C180.169 190.939 180.116 191.899 179.811 192.834C179.503 193.791 178.918 194.611 178.056 195.295C177.574 195.678 177.048 195.983 176.48 196.21C175.92 196.449 175.328 196.553 174.706 196.523C174.071 196.503 173.426 196.304 172.77 195.926C172.102 195.557 171.446 194.954 170.801 194.118L176.37 189.527C175.877 188.907 175.36 188.409 174.818 188.034C174.265 187.668 173.697 187.482 173.113 187.478C172.529 187.474 171.938 187.709 171.341 188.183C171.111 188.365 170.885 188.611 170.661 188.919C170.427 189.237 170.233 189.606 170.08 190.027C169.925 190.468 169.843 190.955 169.834 191.486L168.484 191.378C168.433 190.464 168.519 189.665 168.744 188.981C168.978 188.308 169.289 187.734 169.678 187.256C170.055 186.788 170.439 186.399 170.83 186.089ZM177.224 190.815L174.054 193.333C174.448 193.806 174.818 194.13 175.164 194.306C175.506 194.501 175.831 194.581 176.139 194.543C176.446 194.505 176.737 194.376 177.013 194.158C177.518 193.756 177.768 193.258 177.764 192.662C177.768 192.078 177.588 191.463 177.224 190.815Z" fill="white"></path><path d="M159.927 193.301C160.783 192.818 161.677 192.567 162.609 192.547C163.54 192.527 164.428 192.758 165.273 193.241C166.106 193.732 166.813 194.495 167.397 195.529C167.808 196.258 168.072 197.009 168.189 197.785C168.307 198.561 168.285 199.314 168.125 200.044C167.951 200.782 167.644 201.46 167.202 202.08C166.747 202.707 166.149 203.229 165.408 203.647C164.59 204.108 163.841 204.362 163.161 204.409C162.474 204.476 161.882 204.381 161.383 204.124C160.879 203.886 160.5 203.544 160.248 203.097C160.039 202.726 159.967 202.329 160.031 201.906C160.09 201.502 160.32 201.179 160.722 200.935C161.2 200.649 161.614 200.592 161.964 200.765C162.322 200.951 162.576 201.178 162.727 201.446C162.792 201.561 162.849 201.706 162.897 201.881C162.952 202.069 162.977 202.248 162.973 202.419C163.17 202.56 163.384 202.625 163.613 202.614C163.842 202.602 164.06 202.555 164.266 202.473C164.466 202.41 164.62 202.34 164.728 202.263C165.32 201.878 165.652 201.287 165.723 200.489C165.795 199.691 165.525 198.749 164.913 197.663C164.552 197.024 164.137 196.467 163.667 195.991C163.191 195.535 162.667 195.233 162.095 195.084C161.523 194.936 160.916 195.025 160.276 195.352C159.732 195.642 159.28 196.065 158.921 196.622C158.561 197.178 158.332 197.787 158.234 198.449L156.866 198.084C156.965 197.186 157.171 196.43 157.482 195.817C157.793 195.204 158.165 194.699 158.598 194.303C159.012 193.902 159.455 193.568 159.927 193.301Z" fill="white"></path><path d="M147.835 198.784C148.826 198.42 149.799 198.304 150.755 198.437C151.71 198.57 152.566 198.943 153.323 199.555C154.07 200.187 154.642 201.039 155.037 202.113C155.457 203.255 155.59 204.339 155.436 205.365C155.273 206.409 154.886 207.31 154.273 208.066C153.652 208.842 152.874 209.402 151.938 209.746C150.947 210.111 149.98 210.224 149.039 210.086C148.097 209.948 147.252 209.563 146.504 208.932C145.762 208.314 145.188 207.455 144.783 206.354C144.357 205.197 144.208 204.112 144.334 203.096C144.461 202.081 144.823 201.197 145.422 200.446C146.026 199.708 146.83 199.154 147.835 198.784ZM148.292 200.281C147.746 200.497 147.404 200.842 147.266 201.315C147.113 201.793 147.086 202.334 147.183 202.939C147.281 203.544 147.436 204.135 147.648 204.713C147.836 205.223 148.067 205.724 148.342 206.216C148.603 206.714 148.895 207.146 149.217 207.512C149.539 207.878 149.893 208.138 150.278 208.294C150.65 208.454 151.039 208.451 151.447 208.286C151.979 208.074 152.335 207.725 152.515 207.237C152.681 206.753 152.729 206.204 152.659 205.589C152.58 204.993 152.43 204.392 152.207 203.787C151.949 203.085 151.62 202.424 151.22 201.806C150.821 201.187 150.375 200.718 149.882 200.399C149.381 200.099 148.851 200.059 148.292 200.281Z" fill="white"></path><path d="M140.267 203.045C139.864 203.126 139.592 203.263 139.451 203.455C139.311 203.648 139.248 203.893 139.262 204.189C139.265 204.503 139.304 204.846 139.379 205.22L140.107 208.844C140.159 209.103 140.209 209.392 140.258 209.711C140.31 210.045 140.354 210.372 140.388 210.695C140.616 210.634 140.886 210.565 141.199 210.487C141.501 210.426 141.73 210.373 141.885 210.327L142.214 211.966L141.352 212.139C140.791 212.252 140.295 212.426 139.863 212.662C139.418 212.901 139.137 213.107 139.023 213.28L137.966 213.492C137.908 213.354 137.832 213.085 137.736 212.685C137.644 212.3 137.568 211.956 137.507 211.654C137.214 212.207 136.924 212.662 136.636 213.018C136.349 213.375 136.053 213.652 135.748 213.847C135.432 214.061 135.101 214.202 134.756 214.271C134.253 214.372 133.785 214.316 133.354 214.104C132.925 213.906 132.647 213.49 132.52 212.857C132.477 212.642 132.481 212.402 132.533 212.137C132.587 211.887 132.706 211.661 132.89 211.459C133.074 211.258 133.353 211.119 133.727 211.044C134.015 210.987 134.327 211.014 134.663 211.126C135 211.238 135.239 211.534 135.38 212.014C135.668 211.956 135.931 211.776 136.169 211.474C136.411 211.186 136.613 210.854 136.777 210.477C136.929 210.117 137.021 209.792 137.052 209.502L136.347 205.986C136.306 205.785 136.256 205.496 136.195 205.119C136.137 204.756 136.09 204.407 136.052 204.07C135.828 204.145 135.579 204.21 135.306 204.265C135.021 204.337 134.807 204.388 134.663 204.417L134.334 202.777L139.985 201.643L140.267 203.045Z" fill="white"></path><path d="M127.329 113.555L152.883 120.442L127.322 127.322L120.441 152.884L113.561 127.322L87.9993 120.442L113.561 113.562L120.441 88L127.329 113.555Z" fill="white"></path><defs><linearGradient id="paint0_linear_375_3075" x1="240" y1="-1.70732e-06" x2="238.454" y2="241.526" gradientUnits="userSpaceOnUse"><stop stop-color="#0044FF"></stop><stop offset="1" stop-color="#49219C"></stop></linearGradient></defs></svg>