<svg xmlns="http://www.w3.org/2000/svg" width="33" height="33" viewBox="0 0 33 33" fill="none"><path d="M27.4346 10.89C27.4514 11.1324 27.4514 11.3749 27.4514 11.6195C27.4514 19.0746 21.776 27.6727 11.3983 27.6727V27.6682C8.33267 27.6727 5.33074 26.7945 2.75 25.1388C3.19576 25.1925 3.64376 25.2193 4.09288 25.2204C6.6334 25.2226 9.10131 24.3702 11.1 22.8005C8.68571 22.7547 6.56861 21.1806 5.82902 18.8825C6.67474 19.0456 7.54616 19.0121 8.37624 18.7853C5.74411 18.2535 3.85045 15.9409 3.85045 13.2551C3.85045 13.2305 3.85045 13.2071 3.85045 13.1836C4.63472 13.6205 5.51285 13.8629 6.41108 13.8897C3.932 12.2329 3.16783 8.9349 4.66489 6.35639C7.5294 9.88117 11.7558 12.024 16.2928 12.2508C15.8381 10.2912 16.4592 8.23776 17.925 6.86025C20.1974 4.72415 23.7713 4.83364 25.9074 7.10491C27.171 6.85578 28.382 6.39214 29.4903 5.73522C29.0691 7.04123 28.1876 8.15062 27.0101 8.85557C28.1284 8.72374 29.2211 8.42433 30.25 7.9674C29.4925 9.10248 28.5384 10.0912 27.4346 10.89Z" fill="white"></path></svg>